<?xml version="1.0" encoding="UTF-8" standalone="no"?>
<!DOCTYPE svg PUBLIC "-//W3C//DTD SVG 1.0//EN"
 "http://www.w3.org/TR/2001/REC-SVG-20010904/DTD/svg10.dtd" [
 <!ATTLIST svg xmlns:xlink CDATA #FIXED "http://www.w3.org/1999/xlink">
]>
<!-- Generated by Graphviz version 2.20.2 (Tue Mar &#160;2 19:03:41 UTC 2010)
     For user: (root) root -->
<!-- Title: G Pages: 1 -->
<svg width="124pt" height="308pt"
 viewBox="0.00 0.00 124.00 308.00" xmlns="http://www.w3.org/2000/svg" xmlns:xlink="http://www.w3.org/1999/xlink">
<g id="graph0" class="graph" transform="scale(1 1) rotate(0) translate(4 304)">
<title>G</title>
<polygon style="fill:white;stroke:white;" points="-4,4 -4,-304 120,-304 120,4 -4,4"/>
<g id="cluster2" class="cluster"><title>cluster_default</title>
<polyline style="fill:none;stroke:none;" points="20,-16 96,-16 "/>
<path style="fill:none;stroke:none;" d="M96,-16C102,-16 108,-22 108,-28"/>
<polyline style="fill:none;stroke:none;" points="108,-28 108,-280 "/>
<path style="fill:none;stroke:none;" d="M108,-280C108,-286 102,-292 96,-292"/>
<polyline style="fill:none;stroke:none;" points="96,-292 20,-292 "/>
<path style="fill:none;stroke:none;" d="M20,-292C14,-292 8,-286 8,-280"/>
<polyline style="fill:none;stroke:none;" points="8,-280 8,-28 "/>
<path style="fill:none;stroke:none;" d="M8,-28C8,-22 14,-16 20,-16"/>
</g>
<!-- \\Zm_Domain -->
<g id="node2" class="node"><title>\\Zm_Domain</title>
<a xlink:href="Zm.Domain.html" xlink:title="Zm_Domain" target="_parent">
<polygon style="fill:none;stroke:black;" points="96,-276 20,-276 20,-240 96,-240 96,-276"/>
<text text-anchor="middle" x="58" y="-255.1" style="font-family:Courier;font-size:11.00;">Zm_Domain</text>
</a>
</g>
<!-- \\Zm_Server -->
<g id="node3" class="node"><title>\\Zm_Server</title>
<a xlink:href="Zm.Server.html" xlink:title="Zm_Server" target="_parent">
<polygon style="fill:none;stroke:black;" points="96,-222 20,-222 20,-186 96,-186 96,-222"/>
<text text-anchor="middle" x="58" y="-201.1" style="font-family:Courier;font-size:11.00;">Zm_Server</text>
</a>
</g>
<!-- \\Zm_Account -->
<g id="node4" class="node"><title>\\Zm_Account</title>
<a xlink:href="Zm.Account.html" xlink:title="Zm_Account" target="_parent">
<polygon style="fill:none;stroke:black;" points="100,-168 16,-168 16,-132 100,-132 100,-168"/>
<text text-anchor="middle" x="58" y="-147.1" style="font-family:Courier;font-size:11.00;">Zm_Account</text>
</a>
</g>
<!-- \\Zm_Auth -->
<g id="node5" class="node"><title>\\Zm_Auth</title>
<a xlink:href="Zm.Auth.html" xlink:title="Zm_Auth" target="_parent">
<polygon style="fill:none;stroke:black;" points="89,-114 27,-114 27,-78 89,-78 89,-114"/>
<text text-anchor="middle" x="58" y="-93.1" style="font-family:Courier;font-size:11.00;">Zm_Auth</text>
</a>
</g>
<!-- \\Zm_User -->
<g id="node6" class="node"><title>\\Zm_User</title>
<a xlink:href="Zm.User.html" xlink:title="Zm_User" target="_parent">
<polygon style="fill:none;stroke:black;" points="89,-60 27,-60 27,-24 89,-24 89,-60"/>
<text text-anchor="middle" x="58" y="-39.1" style="font-family:Courier;font-size:11.00;">Zm_User</text>
</a>
</g>
</g>
</svg>
