<?xml version="1.0" encoding="UTF-8" standalone="no"?>
<!DOCTYPE svg PUBLIC "-//W3C//DTD SVG 1.1//EN"
 "http://www.w3.org/Graphics/SVG/1.1/DTD/svg11.dtd">
<!-- Generated by graphviz version 2.36.0 (20140111.2315)
 -->
<!-- Title: G Pages: 1 -->
<svg width="124pt" height="312pt"
 viewBox="0.00 0.00 124.00 312.00" xmlns="http://www.w3.org/2000/svg" xmlns:xlink="http://www.w3.org/1999/xlink">
<g id="graph0" class="graph" transform="scale(1 1) rotate(0) translate(4 308)">
<title>G</title>
<polygon fill="white" stroke="none" points="-4,4 -4,-308 120,-308 120,4 -4,4"/>
<g id="clust1" class="cluster"><title>cluster_Global</title>
<path fill="none" stroke="gray" d="M20,-8C20,-8 96,-8 96,-8 102,-8 108,-14 108,-20 108,-20 108,-284 108,-284 108,-290 102,-296 96,-296 96,-296 20,-296 20,-296 14,-296 8,-290 8,-284 8,-284 8,-20 8,-20 8,-14 14,-8 20,-8"/>
<text text-anchor="middle" x="58" y="-283.2" font-family="Times,serif" font-size="11.00" fill="gray">Global</text>
</g>
<!-- \\Zm_Domain -->
<g id="node1" class="node"><title>\\Zm_Domain</title>
<polygon fill="none" stroke="black" points="96.5,-268 19.5,-268 19.5,-232 96.5,-232 96.5,-268"/>
<text text-anchor="middle" x="58" y="-247.2" font-family="Courier,monospace" font-size="11.00">Zm_Domain</text>
</g>
<!-- \\Zm_Account -->
<g id="node2" class="node"><title>\\Zm_Account</title>
<polygon fill="none" stroke="black" points="100,-214 16,-214 16,-178 100,-178 100,-214"/>
<text text-anchor="middle" x="58" y="-193.2" font-family="Courier,monospace" font-size="11.00">Zm_Account</text>
</g>
<!-- \\Zm_Server -->
<g id="node3" class="node"><title>\\Zm_Server</title>
<polygon fill="none" stroke="black" points="96.5,-160 19.5,-160 19.5,-124 96.5,-124 96.5,-160"/>
<text text-anchor="middle" x="58" y="-139.2" font-family="Courier,monospace" font-size="11.00">Zm_Server</text>
</g>
<!-- \\Zm_User -->
<g id="node4" class="node"><title>\\Zm_User</title>
<polygon fill="none" stroke="black" points="90,-106 26,-106 26,-70 90,-70 90,-106"/>
<text text-anchor="middle" x="58" y="-85.2" font-family="Courier,monospace" font-size="11.00">Zm_User</text>
</g>
<!-- \\Zm_Auth -->
<g id="node5" class="node"><title>\\Zm_Auth</title>
<polygon fill="none" stroke="black" points="90,-52 26,-52 26,-16 90,-16 90,-52"/>
<text text-anchor="middle" x="58" y="-31.2" font-family="Courier,monospace" font-size="11.00">Zm_Auth</text>
</g>
</g>
</svg>
