<?xml version="1.0" encoding="UTF-8" standalone="no"?>
<!DOCTYPE svg PUBLIC "-//W3C//DTD SVG 1.1//EN"
 "http://www.w3.org/Graphics/SVG/1.1/DTD/svg11.dtd">
<!-- Generated by graphviz version 2.26.3 (20100126.1600)
 -->
<!-- Title: G Pages: 1 -->
<svg width="124pt" height="314pt"
 viewBox="0.00 0.00 124.00 314.00" xmlns="http://www.w3.org/2000/svg" xmlns:xlink="http://www.w3.org/1999/xlink">
<g id="graph1" class="graph" transform="scale(1 1) rotate(0) translate(4 310)">
<title>G</title>
<polygon fill="white" stroke="white" points="-4,5 -4,-310 121,-310 121,5 -4,5"/>
<g id="graph2" class="cluster"><title>cluster_Global</title>
<polyline fill="none" stroke="gray" points="20,-8 96,-8 "/>
<path fill="none" stroke="gray" d="M96,-8C102,-8 108,-14 108,-20"/>
<polyline fill="none" stroke="gray" points="108,-20 108,-286 "/>
<path fill="none" stroke="gray" d="M108,-286C108,-292 102,-298 96,-298"/>
<polyline fill="none" stroke="gray" points="96,-298 20,-298 "/>
<path fill="none" stroke="gray" d="M20,-298C14,-298 8,-292 8,-286"/>
<polyline fill="none" stroke="gray" points="8,-286 8,-20 "/>
<path fill="none" stroke="gray" d="M8,-20C8,-14 14,-8 20,-8"/>
<text text-anchor="middle" x="58" y="-284.1" font-family="Times Roman,serif" font-size="11.00" fill="gray">Global</text>
</g>
<!-- \\Zm_Domain -->
<g id="node2" class="node"><title>\\Zm_Domain</title>
<polygon fill="none" stroke="black" points="96,-268 20,-268 20,-232 96,-232 96,-268"/>
<text text-anchor="middle" x="58" y="-247.1" font-family="Courier,monospace" font-size="11.00">Zm_Domain</text>
</g>
<!-- \\Zm_Account -->
<g id="node3" class="node"><title>\\Zm_Account</title>
<polygon fill="none" stroke="black" points="100,-214 16,-214 16,-178 100,-178 100,-214"/>
<text text-anchor="middle" x="58" y="-193.1" font-family="Courier,monospace" font-size="11.00">Zm_Account</text>
</g>
<!-- \\Zm_Auth -->
<g id="node4" class="node"><title>\\Zm_Auth</title>
<polygon fill="none" stroke="black" points="90,-160 26,-160 26,-124 90,-124 90,-160"/>
<text text-anchor="middle" x="58" y="-139.1" font-family="Courier,monospace" font-size="11.00">Zm_Auth</text>
</g>
<!-- \\Zm_Server -->
<g id="node5" class="node"><title>\\Zm_Server</title>
<polygon fill="none" stroke="black" points="96,-106 20,-106 20,-70 96,-70 96,-106"/>
<text text-anchor="middle" x="58" y="-85.1" font-family="Courier,monospace" font-size="11.00">Zm_Server</text>
</g>
<!-- \\Zm_User -->
<g id="node6" class="node"><title>\\Zm_User</title>
<polygon fill="none" stroke="black" points="90,-52 26,-52 26,-16 90,-16 90,-52"/>
<text text-anchor="middle" x="58" y="-31.1" font-family="Courier,monospace" font-size="11.00">Zm_User</text>
</g>
</g>
</svg>
